<!DOCTYPE svg PUBLIC "-//W3C//DTD SVG 1.1//EN" "http://www.w3.org/Graphics/SVG/1.1/DTD/svg11.dtd">
<!-- Uploaded to: SVG Repo, www.svgrepo.com, Transformed by: SVG Repo Mixer Tools -->
<svg width="194px" height="194px" viewBox="-9.6 -9.6 35.20 35.20" xmlns="http://www.w3.org/2000/svg" fill="none" stroke="#000000" stroke-width="0.00016" transform="matrix(1, 0, 0, 1, 0, 0)">
<g id="SVGRepo_bgCarrier" stroke-width="0" transform="translate(0.2400000000000002,0.2400000000000002), scale(0.97)">
<path transform="translate(-9.6, -9.6), scale(1.1)" d="M16,31.24485404671807C18.588225116032305,31.65813994143873,19.759976512513404,27.747934481889338,21.96143731817995,26.325512321224828C24.01618511660784,24.997885322126148,27.170135975522275,25.272433850130174,28.460272607205802,23.19394174394639C29.746924578237305,21.121063647534978,29.22154053694343,18.286512159144635,28.370565188754547,16C27.620064505030186,13.983456345199297,24.98237449790446,13.29124643067786,24.05260007494241,11.350829179055598C23.000909605937768,9.155976020025836,24.415903676101003,6.074893596870451,22.76011875301208,4.291130854583928C21.15661462253877,2.563689756917145,18.352847881286714,2.5366025846486426,16,2.6758329329129893C13.714891802985914,2.8110547688091523,11.779502936462295,4.1376695911574775,9.686538081322066,5.064763185198521C7.345017162421202,6.101956446659493,4.288593233387175,6.282657587341597,2.9410260352536977,8.460397866113398C1.595660668380796,10.6345798684372,2.808073369520258,13.445676463280599,2.9199063672046925,15.999999999999998C3.0266812566842187,18.438793727927816,1.9066823192755715,21.395111348621985,3.5849447916174952,23.16783546656369C5.3551382742217255,25.03766496686631,8.886671049893692,23.17823102630013,11.044962025296527,24.582377525619595C13.40510665130357,26.117846492623407,13.219562807536224,30.80087586812611,16,31.24485404671807" fill="#a57eec" strokewidth="0"/>
</g>
<g id="SVGRepo_tracerCarrier" stroke-linecap="round" stroke-linejoin="round" stroke="#CCCCCC" stroke-width="0.192"/>
<g id="SVGRepo_iconCarrier">
<path fill="#9609e1" d="M8 1.25a2.101 2.101 0 00-1.785.996l.64.392-.642-.388-5.675 9.373-.006.01a2.065 2.065 0 00.751 2.832c.314.183.67.281 1.034.285h11.366a2.101 2.101 0 001.791-1.045 2.064 2.064 0 00-.006-2.072L9.788 2.25l-.003-.004A2.084 2.084 0 008 1.25z"/>
</g>
</svg>